<mxfile host="app.diagrams.net" agent="Mozilla/5.0 (Windows NT 10.0; Win64; x64) AppleWebKit/537.36 (KHTML, like Gecko) Chrome/133.0.0.0 Safari/537.36" version="26.0.2">
  <diagram name="Page-1" id="A8sPryPeg59ywgiOhEuY">
    <mxGraphModel>
      <root>
        <mxCell id="0" />
        <mxCell id="1" parent="0" />
        <mxCell id="2" value="Evaluation" style="whiteSpace=wrap;strokeWidth=2;verticalAlign=top;" vertex="1" parent="1">
          <mxGeometry x="8" y="20" width="797" height="129" as="geometry" />
        </mxCell>
        <mxCell id="3" value="Collect User Feedback" style="fillColor=none;strokeColor=none;" vertex="1" parent="2" overrideArrowHead="circle">
          <mxGeometry x="43" y="46" width="220" height="54" as="geometry" />
        </mxCell>
        <mxCell id="4" value="Analyze Metrics" style="fillColor=none;strokeColor=none;" vertex="1" parent="2" overrideArrowHead="circle">
          <mxGeometry x="313" y="46" width="172" height="54" as="geometry" />
        </mxCell>
        <mxCell id="5" value="Iterate for Improvement" style="fillColor=none;strokeColor=none;" vertex="1" parent="2" overrideArrowHead="circle">
          <mxGeometry x="535" y="46" width="235" height="54" as="geometry" />
        </mxCell>
        <mxCell id="6" value="Implementation" style="whiteSpace=wrap;strokeWidth=2;verticalAlign=top;" vertex="1" parent="1">
          <mxGeometry x="855" y="20" width="698" height="129" as="geometry" />
        </mxCell>
        <mxCell id="7" value="Develop Frontend" style="fillColor=none;strokeColor=none;" vertex="1" parent="6" overrideArrowHead="circle">
          <mxGeometry x="43" y="46" width="187" height="54" as="geometry" />
        </mxCell>
        <mxCell id="8" value="Develop Backend" style="fillColor=none;strokeColor=none;" vertex="1" parent="6" overrideArrowHead="circle">
          <mxGeometry x="280" y="46" width="182" height="54" as="geometry" />
        </mxCell>
        <mxCell id="9" value="Integrate APIs" style="fillColor=none;strokeColor=none;" vertex="1" parent="6" overrideArrowHead="circle">
          <mxGeometry x="512" y="46" width="159" height="54" as="geometry" />
        </mxCell>
        <mxCell id="10" value="Testing" style="whiteSpace=wrap;strokeWidth=2;verticalAlign=top;" vertex="1" parent="1">
          <mxGeometry x="1603" y="20" width="682" height="129" as="geometry" />
        </mxCell>
        <mxCell id="11" value="Functionality Testing" style="fillColor=none;strokeColor=none;" vertex="1" parent="10" overrideArrowHead="circle">
          <mxGeometry x="43" y="46" width="209" height="54" as="geometry" />
        </mxCell>
        <mxCell id="12" value="Usability Testing" style="fillColor=none;strokeColor=none;" vertex="1" parent="10" overrideArrowHead="circle">
          <mxGeometry x="302" y="46" width="177" height="54" as="geometry" />
        </mxCell>
        <mxCell id="13" value="Bug Fixes" style="fillColor=none;strokeColor=none;" vertex="1" parent="10" overrideArrowHead="circle">
          <mxGeometry x="529" y="46" width="127" height="54" as="geometry" />
        </mxCell>
        <mxCell id="14" value="Prototype" style="whiteSpace=wrap;strokeWidth=2;verticalAlign=top;" vertex="1" parent="1">
          <mxGeometry x="2335" y="20" width="692" height="129" as="geometry" />
        </mxCell>
        <mxCell id="15" value="Design Wireframes" style="fillColor=none;strokeColor=none;" vertex="1" parent="14" overrideArrowHead="circle">
          <mxGeometry x="43" y="46" width="193" height="54" as="geometry" />
        </mxCell>
        <mxCell id="16" value="Develop Mockups" style="fillColor=none;strokeColor=none;" vertex="1" parent="14" overrideArrowHead="circle">
          <mxGeometry x="286" y="46" width="182" height="54" as="geometry" />
        </mxCell>
        <mxCell id="17" value="User Testing" style="fillColor=none;strokeColor=none;" vertex="1" parent="14" overrideArrowHead="circle">
          <mxGeometry x="518" y="46" width="147" height="54" as="geometry" />
        </mxCell>
        <mxCell id="18" value="Generate Ideas" style="whiteSpace=wrap;strokeWidth=2;verticalAlign=top;" vertex="1" parent="1">
          <mxGeometry x="3077" y="20" width="765" height="129" as="geometry" />
        </mxCell>
        <mxCell id="19" value="Brainstorm Features" style="fillColor=none;strokeColor=none;" vertex="1" parent="18" overrideArrowHead="circle">
          <mxGeometry x="43" y="46" width="205" height="54" as="geometry" />
        </mxCell>
        <mxCell id="20" value="Prioritize Features" style="fillColor=none;strokeColor=none;" vertex="1" parent="18" overrideArrowHead="circle">
          <mxGeometry x="298" y="46" width="192" height="54" as="geometry" />
        </mxCell>
        <mxCell id="21" value="Create User Stories" style="fillColor=none;strokeColor=none;" vertex="1" parent="18" overrideArrowHead="circle">
          <mxGeometry x="540" y="46" width="198" height="54" as="geometry" />
        </mxCell>
        <mxCell id="22" value="Define Problem" style="whiteSpace=wrap;strokeWidth=2;verticalAlign=top;" vertex="1" parent="1">
          <mxGeometry x="3892" y="8" width="1122" height="153" as="geometry" />
        </mxCell>
        <mxCell id="23" value="Identify User Needs" style="fillColor=none;strokeColor=none;" vertex="1" parent="22" overrideArrowHead="circle">
          <mxGeometry x="43" y="58" width="200" height="54" as="geometry" />
        </mxCell>
        <mxCell id="24" value="Analyze Market Trends" style="fillColor=none;strokeColor=none;" vertex="1" parent="22" overrideArrowHead="circle">
          <mxGeometry x="293" y="58" width="221" height="54" as="geometry" />
        </mxCell>
        <mxCell id="25" value="Research Competitive Landscape" style="fillColor=none;strokeColor=none;" vertex="1" parent="22" overrideArrowHead="circle">
          <mxGeometry x="564" y="46" width="260" height="78" as="geometry" />
        </mxCell>
        <mxCell id="26" value="Define Success Metrics" style="fillColor=none;strokeColor=none;" vertex="1" parent="22" overrideArrowHead="circle">
          <mxGeometry x="874" y="58" width="222" height="54" as="geometry" />
        </mxCell>
        <mxCell id="27" value="Define Problem" style="fillColor=none;strokeColor=none;" vertex="1" parent="1">
          <mxGeometry x="5065" y="58" width="170" height="54" as="geometry" />
        </mxCell>
        <mxCell id="28" value="Generate Ideas" style="rounded=1;arcSize=40;strokeWidth=2" vertex="1" parent="1">
          <mxGeometry x="5080" y="211" width="139" height="54" as="geometry" />
        </mxCell>
        <mxCell id="29" value="Prototype" style="rounded=1;arcSize=40;strokeWidth=2" vertex="1" parent="1">
          <mxGeometry x="5100" y="315" width="100" height="54" as="geometry" />
        </mxCell>
        <mxCell id="30" value="Testing" style="rounded=1;arcSize=40;strokeWidth=2" vertex="1" parent="1">
          <mxGeometry x="5110" y="419" width="80" height="54" as="geometry" />
        </mxCell>
        <mxCell id="31" value="Implementation" style="rounded=1;arcSize=40;strokeWidth=2" vertex="1" parent="1">
          <mxGeometry x="5078" y="523" width="144" height="54" as="geometry" />
        </mxCell>
        <mxCell id="32" value="Evaluation" style="fillColor=none;strokeColor=none;" vertex="1" parent="1">
          <mxGeometry x="5082" y="627" width="135" height="54" as="geometry" />
        </mxCell>
        <mxCell id="33" value="" style="curved=1;startArrow=circle;startFill=0;endArrow=block;exitX=0.5;exitY=0.99;entryX=0.5;entryY=0;" edge="1" parent="1" source="27" target="28">
          <mxGeometry relative="1" as="geometry">
            <Array as="points" />
          </mxGeometry>
        </mxCell>
        <mxCell id="34" value="" style="curved=1;startArrow=none;endArrow=block;exitX=0.5;exitY=1;entryX=0.5;entryY=0;" edge="1" parent="1" source="28" target="29">
          <mxGeometry relative="1" as="geometry">
            <Array as="points" />
          </mxGeometry>
        </mxCell>
        <mxCell id="35" value="" style="curved=1;startArrow=none;endArrow=block;exitX=0.5;exitY=1;entryX=0.5;entryY=0;" edge="1" parent="1" source="29" target="30">
          <mxGeometry relative="1" as="geometry">
            <Array as="points" />
          </mxGeometry>
        </mxCell>
        <mxCell id="36" value="" style="curved=1;startArrow=none;endArrow=block;exitX=0.5;exitY=1;entryX=0.5;entryY=0;" edge="1" parent="1" source="30" target="31">
          <mxGeometry relative="1" as="geometry">
            <Array as="points" />
          </mxGeometry>
        </mxCell>
        <mxCell id="37" value="" style="curved=1;startArrow=none;endArrow=circle;endFill=0;exitX=0.5;exitY=1;entryX=0.5;entryY=0;" edge="1" parent="1" source="31" target="32">
          <mxGeometry relative="1" as="geometry">
            <Array as="points" />
          </mxGeometry>
        </mxCell>
      </root>
    </mxGraphModel>
  </diagram>
</mxfile>
